<svg xmlns="http://www.w3.org/2000/svg" width="409" height="52" viewBox="0 0 409 52" role="img" aria-label="Pulsor loaders">
<style>.c{transform-box:fill-box;transform-origin:center}
@keyframes pulsor-1ymc00k-kf{0%{opacity:0.12;animation-timing-function:cubic-bezier(0.22, 0.9, 0.38, 1)}10%{opacity:1;animation-timing-function:linear}16%{opacity:1;animation-timing-function:cubic-bezier(0.32, 0.35, 0.6, 1)}58%{opacity:0.12;animation-timing-function:linear}100%{opacity:0.12;animation-timing-function:linear}}@keyframes pulsor-1ymc00k-kf-rm{from{opacity:0.12}to{opacity:0.516}}@media (prefers-reduced-motion: reduce){.pulsor-1ymc00k{animation:pulsor-1ymc00k-kf-rm 3200ms cubic-bezier(0.37, 0, 0.63, 1) infinite alternate !important;transform:none !important}}
.g0 .c{animation:pulsor-1ymc00k-kf 850ms linear infinite}
@keyframes pulsor-3hkjws-kf{0%{transform:rotate(0deg);animation-timing-function:cubic-bezier(0.25, 0.46, 0.45, 0.94)}45%{transform:rotate(16deg);animation-timing-function:cubic-bezier(0.25, 0.46, 0.45, 0.94)}53%{transform:rotate(16deg);animation-timing-function:cubic-bezier(0.25, 0.46, 0.45, 0.94)}100%{transform:rotate(0deg);animation-timing-function:linear}}@keyframes pulsor-3hkjws-kf-rm{from{opacity:0.6}to{opacity:0.78}}@media (prefers-reduced-motion: reduce){.pulsor-3hkjws{animation:pulsor-3hkjws-kf-rm 3200ms cubic-bezier(0.37, 0, 0.63, 1) infinite alternate !important;transform:none !important}}
.g1 .c{animation:pulsor-3hkjws-kf 1800ms linear infinite;transform-origin:bottom}
@keyframes pulsor-1od46pw-kf{0%{opacity:0.2;animation-timing-function:cubic-bezier(0.22, 0.9, 0.38, 1)}10%{opacity:1;animation-timing-function:linear}16%{opacity:1;animation-timing-function:cubic-bezier(0.32, 0.35, 0.6, 1)}58%{opacity:0.2;animation-timing-function:linear}100%{opacity:0.2;animation-timing-function:linear}}@keyframes pulsor-1od46pw-kf-rm{from{opacity:0.2}to{opacity:0.56}}@media (prefers-reduced-motion: reduce){.pulsor-1od46pw{animation:pulsor-1od46pw-kf-rm 3200ms cubic-bezier(0.37, 0, 0.63, 1) infinite alternate !important;transform:none !important}}
.g2 .c{animation:pulsor-1od46pw-kf 1100ms linear infinite}
@keyframes pulsor-xwvgix-kf{0%{transform:translateY(0px);animation-timing-function:cubic-bezier(0.34, 1.56, 0.64, 1)}18%{transform:translateY(-6.3px);animation-timing-function:cubic-bezier(0.34, 1.56, 0.64, 1)}48%{transform:translateY(0px);animation-timing-function:linear}100%{transform:translateY(0px);animation-timing-function:linear}}@keyframes pulsor-xwvgix-kf-rm{from{opacity:0.6}to{opacity:0.78}}@media (prefers-reduced-motion: reduce){.pulsor-xwvgix{animation:pulsor-xwvgix-kf-rm 3200ms cubic-bezier(0.37, 0, 0.63, 1) infinite alternate !important;transform:none !important}}
.g3 .c{animation:pulsor-xwvgix-kf 800ms linear infinite}
@keyframes pulsor-xa3pav-kf{0%{opacity:0.12;animation-timing-function:cubic-bezier(0.22, 0.9, 0.38, 1)}10%{opacity:1;animation-timing-function:linear}16%{opacity:1;animation-timing-function:cubic-bezier(0.32, 0.35, 0.6, 1)}58%{opacity:0.12;animation-timing-function:linear}100%{opacity:0.12;animation-timing-function:linear}}@keyframes pulsor-xa3pav-kf-rm{from{opacity:0.12}to{opacity:0.516}}@media (prefers-reduced-motion: reduce){.pulsor-xa3pav{animation:pulsor-xa3pav-kf-rm 3200ms cubic-bezier(0.37, 0, 0.63, 1) infinite alternate !important;transform:none !important}}
.g4 .c{animation:pulsor-xa3pav-kf 1100ms linear infinite}</style>
<g class="g0" transform="translate(4 11.5)"><rect class="c" x="0" y="0" width="5" height="5" rx="1.5" fill="#2E2A6E" style="animation-delay:-637ms"/><rect class="c" x="8" y="0" width="5" height="5" rx="1.5" fill="#2E2A6E" style="animation-delay:-425ms"/><rect class="c" x="16" y="0" width="5" height="5" rx="1.5" fill="#2E2A6E" style="animation-delay:-212ms"/><rect class="c" x="24" y="0" width="5" height="5" rx="1.5" fill="#2E2A6E" style="animation-delay:0ms"/><rect class="c" x="32" y="0" width="5" height="5" rx="1.5" fill="#2E2A6E" style="animation-delay:-637ms"/><rect class="c" x="40" y="0" width="5" height="5" rx="1.5" fill="#2E2A6E" style="animation-delay:0ms"/><rect class="c" x="48" y="0" width="5" height="5" rx="1.5" fill="#2E2A6E" style="animation-delay:-212ms"/><rect class="c" x="56" y="0" width="5" height="5" rx="1.5" fill="#2E2A6E" style="animation-delay:-425ms"/><rect class="c" x="64" y="0" width="5" height="5" rx="1.5" fill="#2E2A6E" style="animation-delay:-637ms"/><rect class="c" x="0" y="8" width="5" height="5" rx="1.5" fill="#5350b6" style="animation-delay:-425ms"/><rect class="c" x="8" y="8" width="5" height="5" rx="1.5" fill="#5350b6" style="animation-delay:-212ms"/><rect class="c" x="16" y="8" width="5" height="5" rx="1.5" fill="#5350b6" style="animation-delay:0ms"/><rect class="c" x="24" y="8" width="5" height="5" rx="1.5" fill="#5350b6" style="animation-delay:-637ms"/><rect class="c" x="32" y="8" width="5" height="5" rx="1.5" fill="#5350b6" style="animation-delay:-425ms"/><rect class="c" x="40" y="8" width="5" height="5" rx="1.5" fill="#5350b6" style="animation-delay:-637ms"/><rect class="c" x="48" y="8" width="5" height="5" rx="1.5" fill="#5350b6" style="animation-delay:0ms"/><rect class="c" x="56" y="8" width="5" height="5" rx="1.5" fill="#5350b6" style="animation-delay:-212ms"/><rect class="c" x="64" y="8" width="5" height="5" rx="1.5" fill="#5350b6" style="animation-delay:-425ms"/><rect class="c" x="0" y="16" width="5" height="5" rx="1.5" fill="#8286ef" style="animation-delay:-212ms"/><rect class="c" x="8" y="16" width="5" height="5" rx="1.5" fill="#8286ef" style="animation-delay:0ms"/><rect class="c" x="16" y="16" width="5" height="5" rx="1.5" fill="#8286ef" style="animation-delay:-637ms"/><rect class="c" x="24" y="16" width="5" height="5" rx="1.5" fill="#8286ef" style="animation-delay:-425ms"/><rect class="c" x="32" y="16" width="5" height="5" rx="1.5" fill="#8286ef" style="animation-delay:-212ms"/><rect class="c" x="40" y="16" width="5" height="5" rx="1.5" fill="#8286ef" style="animation-delay:-425ms"/><rect class="c" x="48" y="16" width="5" height="5" rx="1.5" fill="#8286ef" style="animation-delay:-637ms"/><rect class="c" x="56" y="16" width="5" height="5" rx="1.5" fill="#8286ef" style="animation-delay:0ms"/><rect class="c" x="64" y="16" width="5" height="5" rx="1.5" fill="#8286ef" style="animation-delay:-212ms"/><rect class="c" x="0" y="24" width="5" height="5" rx="1.5" fill="#C7D2FE" style="animation-delay:0ms"/><rect class="c" x="8" y="24" width="5" height="5" rx="1.5" fill="#C7D2FE" style="animation-delay:-637ms"/><rect class="c" x="16" y="24" width="5" height="5" rx="1.5" fill="#C7D2FE" style="animation-delay:-425ms"/><rect class="c" x="24" y="24" width="5" height="5" rx="1.5" fill="#C7D2FE" style="animation-delay:-212ms"/><rect class="c" x="32" y="24" width="5" height="5" rx="1.5" fill="#C7D2FE" style="animation-delay:0ms"/><rect class="c" x="40" y="24" width="5" height="5" rx="1.5" fill="#C7D2FE" style="animation-delay:-212ms"/><rect class="c" x="48" y="24" width="5" height="5" rx="1.5" fill="#C7D2FE" style="animation-delay:-425ms"/><rect class="c" x="56" y="24" width="5" height="5" rx="1.5" fill="#C7D2FE" style="animation-delay:-637ms"/><rect class="c" x="64" y="24" width="5" height="5" rx="1.5" fill="#C7D2FE" style="animation-delay:0ms"/></g>
<g class="g1" transform="translate(119 15)"><rect class="c" x="0" y="0" width="3" height="22" rx="2" fill="#E3F79B" style="animation-delay:0ms"/><rect class="c" x="7" y="0" width="3" height="22" rx="2" fill="#bfeb91" style="animation-delay:-386ms"/><rect class="c" x="14" y="0" width="3" height="22" rx="2" fill="#99df88" style="animation-delay:-771ms"/><rect class="c" x="21" y="0" width="3" height="22" rx="2" fill="#6fd37e" style="animation-delay:-1157ms"/><rect class="c" x="28" y="0" width="3" height="22" rx="2" fill="#56ba73" style="animation-delay:-1543ms"/><rect class="c" x="35" y="0" width="3" height="22" rx="2" fill="#3da268" style="animation-delay:-129ms"/><rect class="c" x="42" y="0" width="3" height="22" rx="2" fill="#1F8A5D" style="animation-delay:-514ms"/></g>
<g class="g2" transform="translate(210 4)"><g transform="translate(20.2 7) rotate(0.05)"><rect class="c" x="-3.5" y="-1.5" width="7" height="3" rx="1.5" fill="#F5F7FA" style="animation-delay:0ms"/></g><g transform="translate(27.73 8.45) rotate(28.37)"><rect class="c" x="-3.5" y="-1.5" width="7" height="3" rx="1.5" fill="#eceef3" style="animation-delay:-92ms"/></g><g transform="translate(32.46 14.34) rotate(71.22)"><rect class="c" x="-3.5" y="-1.5" width="7" height="3" rx="1.5" fill="#e3e6eb" style="animation-delay:-183ms"/></g><g transform="translate(33.4 22) rotate(90.04)"><rect class="c" x="-3.5" y="-1.5" width="7" height="3" rx="1.5" fill="#d9dde4" style="animation-delay:-275ms"/></g><g transform="translate(32.46 29.66) rotate(108.78)"><rect class="c" x="-3.5" y="-1.5" width="7" height="3" rx="1.5" fill="#d0d5dc" style="animation-delay:-367ms"/></g><g transform="translate(27.73 35.55) rotate(151.63)"><rect class="c" x="-3.5" y="-1.5" width="7" height="3" rx="1.5" fill="#c8cdd5" style="animation-delay:-458ms"/></g><g transform="translate(20.2 37) rotate(-179.95)"><rect class="c" x="-3.5" y="-1.5" width="7" height="3" rx="1.5" fill="#bfc4ce" style="animation-delay:-550ms"/></g><g transform="translate(12.67 35.55) rotate(-151.63)"><rect class="c" x="-3.5" y="-1.5" width="7" height="3" rx="1.5" fill="#b6bcc7" style="animation-delay:-642ms"/></g><g transform="translate(7.94 29.66) rotate(-108.78)"><rect class="c" x="-3.5" y="-1.5" width="7" height="3" rx="1.5" fill="#adb4bf" style="animation-delay:-733ms"/></g><g transform="translate(7 22) rotate(-89.96)"><rect class="c" x="-3.5" y="-1.5" width="7" height="3" rx="1.5" fill="#a4acb8" style="animation-delay:-825ms"/></g><g transform="translate(7.94 14.34) rotate(-71.22)"><rect class="c" x="-3.5" y="-1.5" width="7" height="3" rx="1.5" fill="#9ca4b1" style="animation-delay:-917ms"/></g><g transform="translate(12.67 8.45) rotate(-28.37)"><rect class="c" x="-3.5" y="-1.5" width="7" height="3" rx="1.5" fill="#939caa" style="animation-delay:-1008ms"/></g></g>
<g class="g3" transform="translate(296.4 22.5)"><rect class="c" x="0" y="0" width="7" height="7" rx="3.5" fill="#5EE7DF" style="animation-delay:0ms"/><rect class="c" x="11" y="0" width="7" height="7" rx="3.5" fill="#8888fd" style="animation-delay:-267ms"/><rect class="c" x="22" y="0" width="7" height="7" rx="3.5" fill="#F98BD9" style="animation-delay:-533ms"/></g>
<g class="g4" transform="translate(371.4 10)"><rect class="c" x="9.42" y="0" width="14.77" height="2.5" rx="1.25" fill="#EAF6FF" style="animation-delay:0ms"/><rect class="c" x="3.47" y="4.21" width="10" height="2.5" rx="1.25" fill="#d1eaff" style="animation-delay:-206ms"/><rect class="c" x="20.13" y="4.21" width="10" height="2.5" rx="1.25" fill="#d1eaff" style="animation-delay:-206ms"/><rect class="c" x="1.03" y="8.43" width="10" height="2.5" rx="1.25" fill="#b8dfff" style="animation-delay:-412ms"/><rect class="c" x="22.57" y="8.43" width="10" height="2.5" rx="1.25" fill="#b8dfff" style="animation-delay:-412ms"/><rect class="c" x="0.09" y="12.64" width="10" height="2.5" rx="1.25" fill="#9fd3ff" style="animation-delay:-619ms"/><rect class="c" x="23.51" y="12.64" width="10" height="2.5" rx="1.25" fill="#9fd3ff" style="animation-delay:-619ms"/><rect class="c" x="0.09" y="16.86" width="10" height="2.5" rx="1.25" fill="#8ac6fb" style="animation-delay:-825ms"/><rect class="c" x="23.51" y="16.86" width="10" height="2.5" rx="1.25" fill="#8ac6fb" style="animation-delay:-825ms"/><rect class="c" x="1.03" y="21.07" width="10" height="2.5" rx="1.25" fill="#76b9f6" style="animation-delay:-1031ms"/><rect class="c" x="22.57" y="21.07" width="10" height="2.5" rx="1.25" fill="#76b9f6" style="animation-delay:-1031ms"/><rect class="c" x="3.47" y="25.29" width="10" height="2.5" rx="1.25" fill="#62abf0" style="animation-delay:-137ms"/><rect class="c" x="20.13" y="25.29" width="10" height="2.5" rx="1.25" fill="#62abf0" style="animation-delay:-137ms"/><rect class="c" x="9.42" y="29.5" width="14.77" height="2.5" rx="1.25" fill="#4C9EEB" style="animation-delay:-344ms"/></g>
</svg>
