<svg xmlns="http://www.w3.org/2000/svg" width="234" height="54" viewBox="0 0 234 54" role="img" aria-label="Pulsor loaders">
<style>.c{transform-box:fill-box;transform-origin:center}
@keyframes pulsor-362gvm-kf{0%{opacity:0.12;animation-timing-function:cubic-bezier(0.85, 0, 0.15, 1)}10%{opacity:1;animation-timing-function:linear}16%{opacity:1;animation-timing-function:cubic-bezier(0.85, 0, 0.15, 1)}58%{opacity:0.12;animation-timing-function:linear}100%{opacity:0.12;animation-timing-function:linear}}@keyframes pulsor-362gvm-kf-rm{from{opacity:0.12}to{opacity:0.516}}@media (prefers-reduced-motion: reduce){.pulsor-362gvm{animation:pulsor-362gvm-kf-rm 3200ms cubic-bezier(0.37, 0, 0.63, 1) infinite alternate !important;transform:none !important}}
.g0 .c{animation:pulsor-362gvm-kf 2200ms linear infinite}
@keyframes pulsor-r7uc03-kf{0%{transform:scaleY(0.3);animation-timing-function:cubic-bezier(0.37, 0, 0.63, 1)}45%{transform:scaleY(1);animation-timing-function:cubic-bezier(0.37, 0, 0.63, 1)}53%{transform:scaleY(1);animation-timing-function:cubic-bezier(0.37, 0, 0.63, 1)}100%{transform:scaleY(0.3);animation-timing-function:linear}}@keyframes pulsor-r7uc03-kf-rm{from{opacity:0.6}to{opacity:0.78}}@media (prefers-reduced-motion: reduce){.pulsor-r7uc03{animation:pulsor-r7uc03-kf-rm 3200ms cubic-bezier(0.37, 0, 0.63, 1) infinite alternate !important;transform:none !important}}
.g1 .c{animation:pulsor-r7uc03-kf 1000ms linear infinite}
@keyframes pulsor-ar8r0r-kf{0%{transform:scaleX(0.45);animation-timing-function:cubic-bezier(0.1, 0.9, 0.3, 1)}2%{transform:scaleX(1);animation-timing-function:cubic-bezier(0.45, 0.1, 0.7, 0.8)}12%{transform:scaleX(1);animation-timing-function:cubic-bezier(0.45, 0.1, 0.7, 0.8)}28%{transform:scaleX(0.45);animation-timing-function:linear}100%{transform:scaleX(0.45);animation-timing-function:linear}}@keyframes pulsor-ar8r0r-kf-rm{from{opacity:0.6}to{opacity:0.78}}@media (prefers-reduced-motion: reduce){.pulsor-ar8r0r{animation:pulsor-ar8r0r-kf-rm 3200ms cubic-bezier(0.37, 0, 0.63, 1) infinite alternate !important;transform:none !important}}
.g2 .c{animation:pulsor-ar8r0r-kf 950ms linear infinite}</style>
<g class="g0" transform="translate(4 4)"><rect class="c" x="0" y="0" width="4" height="4" rx="1.5" fill="#C4B5FD" style="animation-delay:-1571ms"/><rect class="c" x="7" y="0" width="4" height="4" rx="1.5" fill="#C4B5FD" style="animation-delay:-1661ms"/><rect class="c" x="14" y="0" width="4" height="4" rx="1.5" fill="#C4B5FD" style="animation-delay:-1751ms"/><rect class="c" x="21" y="0" width="4" height="4" rx="1.5" fill="#C4B5FD" style="animation-delay:-1841ms"/><rect class="c" x="28" y="0" width="4" height="4" rx="1.5" fill="#C4B5FD" style="animation-delay:-1931ms"/><rect class="c" x="35" y="0" width="4" height="4" rx="1.5" fill="#C4B5FD" style="animation-delay:-2020ms"/><rect class="c" x="42" y="0" width="4" height="4" rx="1.5" fill="#C4B5FD" style="animation-delay:-2110ms"/><rect class="c" x="0" y="7" width="4" height="4" rx="1.5" fill="#ac9cfe" style="animation-delay:-1482ms"/><rect class="c" x="7" y="7" width="4" height="4" rx="1.5" fill="#ac9cfe" style="animation-delay:-1796ms"/><rect class="c" x="14" y="7" width="4" height="4" rx="1.5" fill="#ac9cfe" style="animation-delay:-1886ms"/><rect class="c" x="21" y="7" width="4" height="4" rx="1.5" fill="#ac9cfe" style="animation-delay:-1976ms"/><rect class="c" x="28" y="7" width="4" height="4" rx="1.5" fill="#ac9cfe" style="animation-delay:-2065ms"/><rect class="c" x="35" y="7" width="4" height="4" rx="1.5" fill="#ac9cfe" style="animation-delay:-2155ms"/><rect class="c" x="42" y="7" width="4" height="4" rx="1.5" fill="#ac9cfe" style="animation-delay:-45ms"/><rect class="c" x="0" y="14" width="4" height="4" rx="1.5" fill="#9682fe" style="animation-delay:-1392ms"/><rect class="c" x="7" y="14" width="4" height="4" rx="1.5" fill="#9682fe" style="animation-delay:-1706ms"/><rect class="c" x="14" y="14" width="4" height="4" rx="1.5" fill="#9682fe" style="animation-delay:-539ms"/><rect class="c" x="21" y="14" width="4" height="4" rx="1.5" fill="#9682fe" style="animation-delay:-629ms"/><rect class="c" x="28" y="14" width="4" height="4" rx="1.5" fill="#9682fe" style="animation-delay:-718ms"/><rect class="c" x="35" y="14" width="4" height="4" rx="1.5" fill="#9682fe" style="animation-delay:-808ms"/><rect class="c" x="42" y="14" width="4" height="4" rx="1.5" fill="#9682fe" style="animation-delay:-135ms"/><rect class="c" x="0" y="21" width="4" height="4" rx="1.5" fill="#8265fd" style="animation-delay:-1302ms"/><rect class="c" x="7" y="21" width="4" height="4" rx="1.5" fill="#8265fd" style="animation-delay:-1616ms"/><rect class="c" x="14" y="21" width="4" height="4" rx="1.5" fill="#8265fd" style="animation-delay:-449ms"/><rect class="c" x="21" y="21" width="4" height="4" rx="1.5" fill="#8265fd" style="animation-delay:0ms"/><rect class="c" x="28" y="21" width="4" height="4" rx="1.5" fill="#8265fd" style="animation-delay:-90ms"/><rect class="c" x="35" y="21" width="4" height="4" rx="1.5" fill="#8265fd" style="animation-delay:-898ms"/><rect class="c" x="42" y="21" width="4" height="4" rx="1.5" fill="#8265fd" style="animation-delay:-224ms"/><rect class="c" x="0" y="28" width="4" height="4" rx="1.5" fill="#6f4ce0" style="animation-delay:-1212ms"/><rect class="c" x="7" y="28" width="4" height="4" rx="1.5" fill="#6f4ce0" style="animation-delay:-1527ms"/><rect class="c" x="14" y="28" width="4" height="4" rx="1.5" fill="#6f4ce0" style="animation-delay:-359ms"/><rect class="c" x="21" y="28" width="4" height="4" rx="1.5" fill="#6f4ce0" style="animation-delay:-269ms"/><rect class="c" x="28" y="28" width="4" height="4" rx="1.5" fill="#6f4ce0" style="animation-delay:-180ms"/><rect class="c" x="35" y="28" width="4" height="4" rx="1.5" fill="#6f4ce0" style="animation-delay:-988ms"/><rect class="c" x="42" y="28" width="4" height="4" rx="1.5" fill="#6f4ce0" style="animation-delay:-314ms"/><rect class="c" x="0" y="35" width="4" height="4" rx="1.5" fill="#5e35ba" style="animation-delay:-1122ms"/><rect class="c" x="7" y="35" width="4" height="4" rx="1.5" fill="#5e35ba" style="animation-delay:-1437ms"/><rect class="c" x="14" y="35" width="4" height="4" rx="1.5" fill="#5e35ba" style="animation-delay:-1347ms"/><rect class="c" x="21" y="35" width="4" height="4" rx="1.5" fill="#5e35ba" style="animation-delay:-1257ms"/><rect class="c" x="28" y="35" width="4" height="4" rx="1.5" fill="#5e35ba" style="animation-delay:-1167ms"/><rect class="c" x="35" y="35" width="4" height="4" rx="1.5" fill="#5e35ba" style="animation-delay:-1078ms"/><rect class="c" x="42" y="35" width="4" height="4" rx="1.5" fill="#5e35ba" style="animation-delay:-404ms"/><rect class="c" x="0" y="42" width="4" height="4" rx="1.5" fill="#4C1D95" style="animation-delay:-1033ms"/><rect class="c" x="7" y="42" width="4" height="4" rx="1.5" fill="#4C1D95" style="animation-delay:-943ms"/><rect class="c" x="14" y="42" width="4" height="4" rx="1.5" fill="#4C1D95" style="animation-delay:-853ms"/><rect class="c" x="21" y="42" width="4" height="4" rx="1.5" fill="#4C1D95" style="animation-delay:-763ms"/><rect class="c" x="28" y="42" width="4" height="4" rx="1.5" fill="#4C1D95" style="animation-delay:-673ms"/><rect class="c" x="35" y="42" width="4" height="4" rx="1.5" fill="#4C1D95" style="animation-delay:-584ms"/><rect class="c" x="42" y="42" width="4" height="4" rx="1.5" fill="#4C1D95" style="animation-delay:-494ms"/></g>
<g class="g1" transform="translate(96 15)"><rect class="c" x="0" y="0" width="4" height="24" rx="2" fill="#7FF0D4" style="animation-delay:0ms"/><rect class="c" x="7" y="0" width="4" height="24" rx="2" fill="#68ddd7" style="animation-delay:-214ms"/><rect class="c" x="14" y="0" width="4" height="24" rx="2" fill="#51c9d8" style="animation-delay:-429ms"/><rect class="c" x="21" y="0" width="4" height="24" rx="2" fill="#38b6d9" style="animation-delay:-643ms"/><rect class="c" x="28" y="0" width="4" height="24" rx="2" fill="#3598ca" style="animation-delay:-857ms"/><rect class="c" x="35" y="0" width="4" height="24" rx="2" fill="#317bba" style="animation-delay:-71ms"/><rect class="c" x="42" y="0" width="4" height="24" rx="2" fill="#2E5EAA" style="animation-delay:-286ms"/></g>
<g class="g2" transform="translate(188 6)"><g transform="translate(21 8) rotate(-90)"><rect class="c" x="-4" y="-1.5" width="8" height="3" rx="1.5" fill="#FFC46B" style="animation-delay:0ms"/></g><g transform="translate(28.64 10.48) rotate(-54)"><rect class="c" x="-4" y="-1.5" width="8" height="3" rx="1.5" fill="#ffb364" style="animation-delay:-95ms"/></g><g transform="translate(33.36 16.98) rotate(-18)"><rect class="c" x="-4" y="-1.5" width="8" height="3" rx="1.5" fill="#ffa25e" style="animation-delay:-190ms"/></g><g transform="translate(33.36 25.02) rotate(18)"><rect class="c" x="-4" y="-1.5" width="8" height="3" rx="1.5" fill="#ff9157" style="animation-delay:-285ms"/></g><g transform="translate(28.64 31.52) rotate(54)"><rect class="c" x="-4" y="-1.5" width="8" height="3" rx="1.5" fill="#ff7f50" style="animation-delay:-380ms"/></g><g transform="translate(21 34) rotate(90)"><rect class="c" x="-4" y="-1.5" width="8" height="3" rx="1.5" fill="#ff6b4a" style="animation-delay:-475ms"/></g><g transform="translate(13.36 31.52) rotate(126)"><rect class="c" x="-4" y="-1.5" width="8" height="3" rx="1.5" fill="#f76253" style="animation-delay:-570ms"/></g><g transform="translate(8.64 25.02) rotate(162)"><rect class="c" x="-4" y="-1.5" width="8" height="3" rx="1.5" fill="#ee595b" style="animation-delay:-665ms"/></g><g transform="translate(8.64 16.98) rotate(-162)"><rect class="c" x="-4" y="-1.5" width="8" height="3" rx="1.5" fill="#e65062" style="animation-delay:-760ms"/></g><g transform="translate(13.36 10.48) rotate(-126)"><rect class="c" x="-4" y="-1.5" width="8" height="3" rx="1.5" fill="#de4667" style="animation-delay:-855ms"/></g></g>
</svg>
